# xmcd
#
# Track frame offsets:
#	150
#	17955
#	36832
#	64372
#	93207
#	116862
#	137997
#
# Disc length: 2060 seconds
#
# Revision: 1
# Processed by: cddbd v1.4PL0 Copyright (c) Steve Scherf et al.
# Submitted via: CDmax 1.9
#
DISCID=64080a07
DTITLE=Mary J Blige - Real Love
DYEAR=1993
DGENRE=R&b
TTITLE0=Real Love (Brixton Flavour 7'') (Without Rap)
TTITLE1=Real Love (Original U.K. 7'')
TTITLE2=Real Love (Brixton Flavour 12'')
TTITLE3=Real Love (Blacksmith's Summer Sound 12'')
TTITLE4=Real Love (West End [A.W.M.] Mix)
TTITLE5=Real Love (Hip Hop Club Mix)
TTITLE6=Real Love (Accapella)
EXTD=
EXTT0=
EXTT1=
EXTT2=
EXTT3=
EXTT4=
EXTT5=
EXTT6=
PLAYORDER=
